<?xml version="1.0" standalone="no"?>
<!DOCTYPE svg PUBLIC "-//W3C//DTD SVG 20010904//EN"
 "http://www.w3.org/TR/2001/REC-SVG-20010904/DTD/svg10.dtd">
<svg version="1.0" xmlns="http://www.w3.org/2000/svg"
 width="53.000000pt" height="57.000000pt" viewBox="0 0 53.000000 57.000000"
 preserveAspectRatio="xMidYMid meet">

<g transform="translate(0.000000,57.000000) scale(0.100000,-0.100000)"
fill="#000000" stroke="none">
<path d="M0 285 l0 -285 265 0 265 0 0 285 0 285 -265 0 -265 0 0 -285z m248
143 c4 -33 5 -33 37 -12 25 16 26 15 71 -30 45 -45 46 -46 30 -71 -21 -32 -21
-33 12 -37 26 -3 27 -5 27 -68 l0 -65 -133 -3 c-129 -3 -133 -2 -157 22 -24
24 -25 30 -25 154 0 71 3 132 7 136 4 4 34 6 68 4 57 -3 60 -4 63 -30z"/>
<path d="M130 317 c0 -110 2 -126 20 -142 26 -24 68 -13 81 22 5 14 8 74 7
132 l-3 106 -52 3 -53 3 0 -124z m60 -107 c0 -5 -2 -10 -4 -10 -3 0 -8 5 -11
10 -3 6 -1 10 4 10 6 0 11 -4 11 -10z"/>
<path d="M277 382 c-24 -25 -27 -36 -27 -95 0 -37 4 -67 8 -67 4 0 33 26 65
58 l57 58 -38 37 -38 37 -27 -28z"/>
<path d="M290 215 l-54 -55 87 0 88 0 -3 53 c-3 50 -4 52 -33 55 -25 2 -39 -7
-85 -53z"/>
</g>
</svg>
