<?xml version="1.0" standalone="no"?>
<!DOCTYPE svg PUBLIC "-//W3C//DTD SVG 20010904//EN"
 "http://www.w3.org/TR/2001/REC-SVG-20010904/DTD/svg10.dtd">
<svg version="1.0" xmlns="http://www.w3.org/2000/svg"
 width="920.000000pt" height="512.000000pt" viewBox="0 0 920.000000 512.000000"
 preserveAspectRatio="xMidYMid meet">

<g transform="translate(0.000000,512.000000) scale(0.100000,-0.100000)"
fill="#000000" stroke="none">
<path d="M4863 4266 c-42 -19 -59 -47 -89 -152 -15 -51 -34 -96 -46 -106 -19
-17 -85 -18 -1080 -18 l-1060 0 -29 -29 c-19 -20 -29 -40 -29 -60 l0 -31 -142
0 c-118 0 -150 -4 -184 -19 -80 -36 -77 39 -44 -1148 49 -1749 43 -1656 114
-1767 27 -42 47 -60 93 -82 l58 -29 2195 0 2195 0 40 21 c48 26 66 45 94 100
48 93 49 114 86 1495 38 1481 41 1373 -39 1410 -34 15 -66 19 -178 19 -132 0
-138 1 -138 20 0 33 -26 75 -55 88 -14 7 -53 12 -86 12 -81 0 -101 21 -124
126 -21 103 -29 119 -62 141 -25 17 -72 18 -743 20 -593 2 -720 0 -747 -11z"/>
<path d="M3836 798 c3 -5 10 -6 15 -3 13 9 11 12 -6 12 -8 0 -12 -4 -9 -9z"/>
<path d="M4064 803 c7 -8 116 -9 128 -2 5 3 -23 6 -62 6 -39 0 -68 -2 -66 -4z"/>
<path d="M4360 806 c7 -7 138 -12 144 -6 3 3 -29 7 -72 8 -42 2 -74 1 -72 -2z"/>
<path d="M4661 806 c6 -7 128 -10 134 -4 3 3 -27 6 -67 7 -40 1 -70 0 -67 -3z"/>
<path d="M4956 798 c3 -4 11 -5 19 -1 21 7 19 12 -4 10 -11 0 -18 -5 -15 -9z"/>
<path d="M5000 805 c0 -8 29 -12 39 -5 9 5 4 8 -13 8 -14 0 -26 -2 -26 -3z"/>
<path d="M5068 803 c7 -3 16 -2 19 1 4 3 -2 6 -13 5 -11 0 -14 -3 -6 -6z"/>
<path d="M5256 798 c3 -5 10 -6 15 -3 13 9 11 12 -6 12 -8 0 -12 -4 -9 -9z"/>
</g>
</svg>
